<svg xmlns="http://www.w3.org/2000/svg" width="20" height="20" version="1.1" viewBox="0 0 20 20">
  <path d="M19.6,9.6h-3.9c-.4,0-1.8-.2-1.8-.2-.6,0-1.1-.2-1.6-.6-.5-.3-.9-.8-1.2-1.2-.3-.4-.4-.9-.5-1.4,0,0,0-1.1-.2-1.5V.4c0-.2-.2-.4-.4-.4s-.4.2-.4.4v4.4c0,.4-.2,1.5-.2,1.5,0,.5-.2,1-.5,1.4-.3.5-.7.9-1.2,1.2s-1,.5-1.6.6c0,0-1.2,0-1.7.2H.4c-.2,0-.4.2-.4.4s.2.4.4.4h4.1c.4,0,1.7.2,1.7.2.6,0,1.1.2,1.6.6.4.3.8.7,1.1,1.1.3.5.5,1,.6,1.6,0,0,0,1.3.2,1.7v4.1c0,.2.2.4.4.4s.4-.2.4-.4v-4.1c0-.4.2-1.7.2-1.7,0-.6.2-1.1.6-1.6.3-.4.7-.8,1.1-1.1.5-.3,1-.5,1.6-.6,0,0,1.3,0,1.8-.2h3.9c.2,0,.4-.2.4-.4s-.2-.4-.4-.4h0Z"/>
</svg>