<?xml version="1.0" encoding="UTF-8"?>
<svg xmlns="http://www.w3.org/2000/svg" width="60" height="60" version="1.1" viewBox="0 0 60 60">
  <defs>
    <style>
      .cls-1 {
        fill: #9f8be7;
      }
    </style>
  </defs>
  <!-- Generator: Adobe Illustrator 28.7.1, SVG Export Plug-In . SVG Version: 1.2.0 Build 142)  -->
  <g>
    <g id="Layer_1">
      <path class="cls-1" d="M58.9,28.9s-9.1.1-12.1,0c-1.3,0-5.3-.5-5.3-.5-1.7-.2-3.4-.7-4.8-1.7-1.4-1-2.7-2.3-3.6-3.7-.8-1.3-1.3-2.7-1.5-4.2,0,0-.4-3.3-.5-4.4-.2-3.3,0-13.1,0-13.1,0-.6-.5-1.1-1.1-1.1s-1.1.5-1.1,1.1c0,0,.2,9.8,0,13.1,0,1.1-.5,4.4-.5,4.4-.2,1.5-.6,3-1.5,4.2-.9,1.5-2.2,2.7-3.6,3.7-1.4,1-3,1.5-4.7,1.7,0,0-3.7.4-5,.5-3.1.2-12.5,0-12.5,0-.6,0-1.1.5-1.1,1.1s.5,1.1,1.1,1.1c0,0,9.4-.2,12.5,0,1.2,0,5,.5,5,.5,1.7.2,3.3.7,4.7,1.7,1.3.9,2.4,2,3.3,3.3,1,1.4,1.5,3.1,1.7,4.8,0,0,.4,3.9.5,5.2.1,3,0,12.2,0,12.2,0,.6.5,1.1,1.1,1.1s1.1-.5,1.1-1.1c0,0-.1-9.2,0-12.2,0-1.3.5-5.2.5-5.2.2-1.7.7-3.4,1.7-4.8.9-1.3,2-2.4,3.3-3.3,1.4-1,3.1-1.5,4.8-1.7,0,0,3.9-.4,5.3-.5,3-.1,12.1,0,12.1,0,.6,0,1.1-.5,1.1-1.1s-.5-1.1-1.1-1.1h0Z"/>
    </g>
  </g>
</svg>