<svg width="226" height="202" viewBox="0 0 226 202" fill="none" xmlns="http://www.w3.org/2000/svg">
<g clip-path="url(#clip0_1814_3316)">
<path d="M185.7 65.2005C183.4 64.4005 180.9 63.6005 178.4 62.9005C178.8 61.2005 179.2 59.6005 179.5 57.9005C185 31.2005 181.4 9.60046 169.1 2.60046C157.3 -4.19954 138 2.90046 118.6 19.8005C116.7 21.4005 114.9 23.2005 113 25.0005C111.7 23.8005 110.5 22.6005 109.3 21.5005C88.9 3.40046 68.4 -4.29954 56.2 2.90046C44.4 9.70046 40.9 30.0005 45.9 55.3005C46.4 57.7005 46.9 60.2005 47.6 62.8005C44.7 63.6005 41.9 64.5005 39.2 65.4005C15.3 73.7005 0 86.8005 0 100.4C0 114 16.4 128.4 41.3 137C43.3 137.7 45.3 138.3 47.4 138.9C46.7 141.6 46.1 144.3 45.6 147C40.9 171.9 44.6 191.7 56.3 198.4C68.4 205.4 88.8 198.2 108.6 180.9C110.2 179.5 111.7 178.1 113.3 176.6C115.3 178.6 117.4 180.4 119.4 182.2C138.6 198.7 157.6 205.4 169.3 198.6C181.4 191.6 185.4 170.4 180.2 144.5C179.8 142.5 179.4 140.5 178.8 138.5C180.2 138.1 181.6 137.6 183 137.2C208.9 128.6 225.8 114.7 225.8 100.6C225.8 86.5005 210 73.8005 185.6 65.4005V65.2005H185.7ZM180.1 127.8C178.9 128.2 177.6 128.6 176.3 129C173.4 119.9 169.6 110.3 164.9 100.4C169.4 90.7005 173.1 81.2005 175.9 72.2005C178.2 72.9005 180.5 73.6005 182.6 74.3005C203.5 81.5005 216.3 92.1005 216.3 100.3C216.3 108.5 202.5 120.4 180.2 127.8H180.1ZM170.8 146.2C173.1 157.6 173.4 167.9 171.9 176C170.6 183.3 167.8 188.1 164.5 190C157.4 194.1 142.2 188.8 125.7 174.6C123.8 173 121.9 171.3 120 169.4C126.4 162.4 132.7 154.3 138.9 145.4C149.8 144.4 160.1 142.8 169.5 140.7C170 142.6 170.4 144.4 170.7 146.2H170.8ZM77 189.4C70 191.9 64.5 191.9 61.2 190C54.1 185.9 51.1 170 55.2 148.7C55.7 146.3 56.2 143.8 56.8 141.2C66.1 143.2 76.3 144.7 87.3 145.6C93.6 154.4 100.1 162.5 106.7 169.6C105.3 171 103.8 172.3 102.4 173.6C93.6 181.3 84.8 186.7 77.1 189.4H77ZM44.4 127.8C33.4 124 24.3 119.1 18 113.8C12.4 109 9.6 104.2 9.6 100.4C9.6 92.2005 21.9 81.7005 42.3 74.5005C44.8 73.6005 47.4 72.8005 50.1 72.1005C52.9 81.3005 56.6 90.9005 61.1 100.6C56.6 110.5 52.8 120.2 49.9 129.5C48 128.9 46.1 128.4 44.3 127.8H44.4ZM55.3 53.4005C51.1 31.7005 53.9 15.3005 61 11.2005C68.6 6.80046 85.3 13.1005 102.9 28.7005C104 29.7005 105.2 30.7005 106.3 31.8005C99.7 38.8005 93.2 46.9005 87.1 55.6005C76.5 56.6005 66.3 58.2005 56.9 60.3005C56.3 57.9005 55.8 55.6005 55.3 53.3005V53.4005ZM152.8 77.5005C150.6 73.6005 148.3 69.9005 145.9 66.2005C153.1 67.1005 160 68.3005 166.5 69.8005C164.6 76.0005 162.1 82.6005 159.3 89.3005C157.3 85.4005 155.1 81.5005 152.8 77.5005ZM113 38.8005C117.5 43.6005 121.9 49.0005 126.3 54.9005C121.9 54.7005 117.4 54.6005 112.9 54.6005C108.4 54.6005 104 54.6005 99.6 54.9005C104 49.1005 108.5 43.7005 113 38.9005V38.8005ZM73 77.5005C70.8 81.4005 68.6 85.3005 66.6 89.2005C63.8 82.5005 61.4 76.0005 59.4 69.6005C65.8 68.2005 72.7 67.0005 79.9 66.1005C77.5 69.8005 75.2 73.6005 73 77.5005ZM80.2 135.2C72.8 134.4 65.8 133.3 59.4 131.9C61.4 125.5 63.9 118.8 66.7 112C68.7 115.9 70.9 119.8 73.1 123.7C75.4 127.7 77.8 131.5 80.2 135.3V135.2ZM113.3 162.6C108.7 157.7 104.2 152.2 99.7 146.3C104 146.5 108.4 146.6 112.9 146.6C117.4 146.6 122.1 146.5 126.5 146.3C122.1 152.3 117.7 157.7 113.2 162.6H113.3ZM159.4 111.6C162.4 118.5 165 125.1 167 131.5C160.4 133 153.4 134.2 145.9 135.1C148.2 131.4 150.6 127.5 152.8 123.6C155.1 119.6 157.3 115.6 159.4 111.6ZM144.5 118.7C141 124.8 137.3 130.7 133.7 136.2C127 136.7 120.1 136.9 113 136.9C105.9 136.9 99.1 136.7 92.5 136.3C88.7 130.7 85 124.8 81.5 118.8C78 112.8 74.8 106.7 71.9 100.6C74.8 94.5005 78 88.4005 81.5 82.4005C85 76.4005 88.7 70.5005 92.5 65.0005C99.2 64.5005 106.1 64.2005 113.1 64.2005C120.1 64.2005 127 64.5005 133.7 65.0005C137.4 70.5005 141.1 76.3005 144.6 82.4005C148.1 88.5005 151.4 94.6005 154.3 100.5C151.4 106.5 148.1 112.7 144.6 118.8H144.5V118.7ZM164.4 10.9005C172 15.3005 174.9 32.9005 170.2 55.9005C169.9 57.4005 169.6 58.9005 169.2 60.4005C159.8 58.2005 149.6 56.6005 139 55.6005C132.8 46.8005 126.4 38.7005 119.9 31.8005C121.6 30.1005 123.4 28.5005 125.1 27.0005C141.8 12.5005 157.4 6.80046 164.5 10.8005H164.4V10.9005ZM112.9 80.2005C124 80.2005 133.1 89.2005 133.1 100.4C133.1 111.6 124.1 120.6 112.9 120.6C101.7 120.6 92.7 111.6 92.7 100.4C92.7 89.2005 101.7 80.2005 112.9 80.2005Z" fill="#16ACDE"/>
</g>
<defs>
<clipPath id="clip0_1814_3316">
<rect width="225.8" height="201.2" fill="white"/>
</clipPath>
</defs>
</svg>
