<svg width="120" height="120" viewBox="0 0 120 120" fill="none" xmlns="http://www.w3.org/2000/svg">
<path d="M107.812 48.6016L111.487 50.7016V52.2691L110.437 55.9366L65.9096 66.4141L61.7246 56.0116L107.812 48.6016Z" fill="#FF7043"/>
<path d="M91.1617 17.7969L96.2842 18.8694L97.6492 20.5494L98.9467 24.5619L98.4067 27.1269L68.5342 67.9794L58.5742 58.0269L86.1217 21.8769L91.1617 17.7969Z" fill="#FF7043"/>
<path d="M65.3925 11.4164L68.535 9.31641L71.1525 10.3664L73.77 14.0414L66.5925 57.1514L61.7175 53.8439L59.625 48.0764L63.3 15.6014L65.3925 11.4164Z" fill="#FF7043"/>
<path d="M31.793 12.105L35.018 7.98L37.1255 7.5L41.3105 8.1075L43.373 9.7275L58.403 43.0425L63.833 58.8675L57.473 62.4L33.2405 18.42L31.793 12.105Z" fill="#FF7043"/>
<path d="M16.1555 34.9889L15.1055 30.7889L18.2555 27.1289L21.9155 27.6539H22.9655L44.963 43.8914L51.773 49.1264L61.2005 56.4614L55.9655 65.3639L51.248 61.6964L48.1055 58.5539L17.7305 37.0814L16.1555 34.9889Z" fill="#FF7043"/>
<path d="M9.87 62.2209L7.5 59.5959V57.2709L9.87 56.4609L36.585 58.0359L62.7675 60.1284L61.92 65.3409L11.97 62.7459L9.87 62.2209Z" fill="#FF7043"/>
<path d="M25.5817 89.4819H20.3467L18.2617 87.0819V84.2169L27.1567 77.9319L63.3067 54.9219L66.9592 61.1694L25.5817 89.4819Z" fill="#FF7043"/>
<path d="M35.5358 104.122L33.4358 104.647L30.3008 103.072L30.8258 100.447L61.7258 59.6016L65.9108 65.3616L42.8708 95.7366L35.5358 104.122Z" fill="#FF7043"/>
<path d="M61.7245 109.356L60.1495 111.456L57.007 112.506L54.3895 110.406L52.8145 107.256L60.6745 64.8438L65.392 65.3687L61.7245 109.356Z" fill="#FF7043"/>
<path d="M88.4316 97.8381V102.023L87.9066 103.598L85.8141 104.648L82.1466 104.153L56.9766 66.6831L66.9591 59.0781L75.3366 74.2656L76.1241 79.7631L88.4316 97.8381Z" fill="#FF7043"/>
<path d="M100.485 91.5539L101.01 94.1714L99.4347 96.2639L97.8597 95.7389L88.9572 89.4539L75.3447 77.4089L64.8672 70.0739L68.0097 60.1289L73.2447 63.2714L76.3947 69.0314L100.485 91.5539Z" fill="#FF7043"/>
<path d="M93.6747 64.8369L106.77 65.8869L109.912 67.9869L112.005 71.1219V73.3869L106.245 75.8394L76.9122 68.5044L64.8672 67.9794L68.0097 56.9844L76.3872 63.2694L93.6747 64.8369Z" fill="#FF7043"/>
</svg>
