<svg width="397" height="46" viewBox="0 0 397 46" fill="none" xmlns="http://www.w3.org/2000/svg">
<path d="M12.5 35V22.4167L-1.11759e-08 1.25H7.20833L15.7083 16H15.875L24.5 1.25H31.375L18.8333 22.3333V35H12.5ZM42.556 35.5C39.8615 35.5 37.5143 34.9722 35.5143 33.9167C33.5421 32.8333 32.0004 31.3194 30.8893 29.375C29.806 27.4306 29.2643 25.1389 29.2643 22.5C29.2643 19.8333 29.806 17.5278 30.8893 15.5833C32.0004 13.6389 33.556 12.1389 35.556 11.0833C37.556 10.0278 39.8893 9.5 42.556 9.5C45.2782 9.5 47.6115 10.0278 49.556 11.0833C51.5282 12.1389 53.056 13.6389 54.1393 15.5833C55.2227 17.5278 55.7643 19.8333 55.7643 22.5C55.7643 25.1389 55.2227 27.4444 54.1393 29.4167C53.056 31.3611 51.5282 32.8611 49.556 33.9167C47.5838 34.9722 45.2504 35.5 42.556 35.5ZM42.556 30.0833C44.7782 30.0833 46.5004 29.4167 47.7227 28.0833C48.9449 26.7222 49.556 24.8611 49.556 22.5C49.556 20.1111 48.9449 18.25 47.7227 16.9167C46.5004 15.5833 44.7782 14.9167 42.556 14.9167C40.306 14.9167 38.556 15.5833 37.306 16.9167C36.0838 18.25 35.4727 20.0972 35.4727 22.4583C35.4727 24.8472 36.0838 26.7222 37.306 28.0833C38.556 29.4167 40.306 30.0833 42.556 30.0833ZM61.8125 35V16.2083H58.7292V10H65.1042V14H66.8542C67.7986 12.5833 69.0069 11.4861 70.4792 10.7083C71.9514 9.93056 73.7569 9.54167 75.8958 9.54167C79.3125 9.54167 81.9514 10.4861 83.8125 12.375C85.7014 14.2639 86.6458 16.7778 86.6458 19.9167V35H80.4375V21.0833C80.4375 19.1111 79.9097 17.6111 78.8542 16.5833C77.8264 15.5556 76.2847 15.0417 74.2292 15.0417C72.2292 15.0417 70.6875 15.5556 69.6042 16.5833C68.5486 17.6111 68.0208 19.1111 68.0208 21.0833V35H61.8125ZM100.275 35.4583C97.3581 35.4583 95.0664 34.75 93.3997 33.3333C91.7609 31.9167 90.9414 30.0417 90.9414 27.7083C90.9414 25.2639 91.7747 23.375 93.4414 22.0417C95.1359 20.7083 97.5664 20.0417 100.733 20.0417H108.358V19.0417C108.358 15.9861 106.58 14.4583 103.025 14.4583C100.025 14.4583 98.2053 15.5417 97.5664 17.7083H91.3581C91.8581 15.0417 93.1081 13.0139 95.1081 11.625C97.1359 10.2083 99.7747 9.5 103.025 9.5C106.691 9.5 109.483 10.3333 111.4 12C113.316 13.6389 114.275 16.0417 114.275 19.2083V28.7917H117.233V35H110.858V31H109.108C108.247 32.4167 107.08 33.5139 105.608 34.2917C104.164 35.0694 102.386 35.4583 100.275 35.4583ZM101.191 30.6667C102.553 30.6667 103.775 30.4167 104.858 29.9167C105.941 29.3889 106.789 28.6944 107.4 27.8333C108.039 26.9444 108.358 25.9583 108.358 24.875V24.2917H101.066C98.2609 24.2917 96.8581 25.3333 96.8581 27.4167C96.8581 28.4444 97.2331 29.25 97.9831 29.8333C98.7609 30.3889 99.8303 30.6667 101.191 30.6667ZM128.974 35C127.335 35 126.057 34.5833 125.141 33.75C124.252 32.9167 123.807 31.6528 123.807 29.9583V14.8333H119.391V10H123.849V2.5H129.932V10H135.974V14.8333H130.016V30.125H136.557V35H128.974ZM140.454 35V5.96046e-07H146.662V13.7083H146.829C147.634 12.3472 148.732 11.3194 150.12 10.625C151.509 9.90278 153.148 9.54167 155.037 9.54167C158.176 9.54167 160.662 10.4861 162.495 12.375C164.357 14.2639 165.287 16.7778 165.287 19.9167V35H159.079V21.0833C159.079 19.1111 158.551 17.6111 157.495 16.5833C156.44 15.5556 154.898 15.0417 152.87 15.0417C150.843 15.0417 149.301 15.5556 148.245 16.5833C147.19 17.6111 146.662 19.1111 146.662 21.0833V35H140.454ZM178.888 35.4583C175.971 35.4583 173.68 34.75 172.013 33.3333C170.374 31.9167 169.555 30.0417 169.555 27.7083C169.555 25.2639 170.388 23.375 172.055 22.0417C173.749 20.7083 176.18 20.0417 179.346 20.0417H186.971V19.0417C186.971 15.9861 185.194 14.4583 181.638 14.4583C178.638 14.4583 176.819 15.5417 176.18 17.7083H169.971C170.471 15.0417 171.721 13.0139 173.721 11.625C175.749 10.2083 178.388 9.5 181.638 9.5C185.305 9.5 188.096 10.3333 190.013 12C191.93 13.6389 192.888 16.0417 192.888 19.2083V28.7917H195.846V35H189.471V31H187.721C186.86 32.4167 185.694 33.5139 184.221 34.2917C182.777 35.0694 180.999 35.4583 178.888 35.4583ZM179.805 30.6667C181.166 30.6667 182.388 30.4167 183.471 29.9167C184.555 29.3889 185.402 28.6944 186.013 27.8333C186.652 26.9444 186.971 25.9583 186.971 24.875V24.2917H179.68C176.874 24.2917 175.471 25.3333 175.471 27.4167C175.471 28.4444 175.846 29.25 176.596 29.8333C177.374 30.3889 178.444 30.6667 179.805 30.6667ZM200.924 35V16.2083H197.84V10H204.215V14H205.965C206.91 12.5833 208.118 11.4861 209.59 10.7083C211.063 9.93056 212.868 9.54167 215.007 9.54167C218.424 9.54167 221.063 10.4861 222.924 12.375C224.813 14.2639 225.757 16.7778 225.757 19.9167V35H219.549V21.0833C219.549 19.1111 219.021 17.6111 217.965 16.5833C216.938 15.5556 215.396 15.0417 213.34 15.0417C211.34 15.0417 209.799 15.5556 208.715 16.5833C207.66 17.6111 207.132 19.1111 207.132 21.0833V35H200.924ZM240.814 35L255.148 1.25H261.773L276.023 35H269.523L265.814 26.1667H250.856L247.106 35H240.814ZM252.856 20.8333H264.023L258.564 7.75H258.356L252.856 20.8333ZM290.841 45.5C287.174 45.5 284.188 44.75 281.883 43.25C279.605 41.75 278.258 39.6806 277.841 37.0417H284.383C285.077 39.3472 287.161 40.5 290.633 40.5C292.938 40.5 294.702 39.9583 295.924 38.875C297.174 37.8194 297.799 36.3056 297.799 34.3333V30.75H297.591C296.869 32.1389 295.827 33.1944 294.466 33.9167C293.105 34.6389 291.48 35 289.591 35C287.258 35 285.216 34.4861 283.466 33.4583C281.716 32.4028 280.369 30.9167 279.424 29C278.48 27.0833 278.008 24.8333 278.008 22.25C278.008 18.3611 279.063 15.2639 281.174 12.9583C283.313 10.6528 286.258 9.5 290.008 9.5C292.063 9.5 293.827 9.88889 295.299 10.6667C296.772 11.4444 297.952 12.5556 298.841 14H300.591V10H306.966V16.2083H303.841V34.4167C303.841 37.9444 302.716 40.6667 300.466 42.5833C298.216 44.5278 295.008 45.5 290.841 45.5ZM291.133 29.5833C293.133 29.5833 294.716 29.0278 295.883 27.9167C297.049 26.7778 297.633 25.25 297.633 23.3333V21.0833C297.633 19.1944 297.036 17.6944 295.841 16.5833C294.674 15.4722 293.105 14.9167 291.133 14.9167C288.938 14.9167 287.23 15.5694 286.008 16.875C284.813 18.1528 284.216 19.9583 284.216 22.2917C284.216 24.625 284.813 26.4306 286.008 27.7083C287.23 28.9583 288.938 29.5833 291.133 29.5833ZM323.095 35.5C320.401 35.5 318.067 34.9722 316.095 33.9167C314.123 32.8333 312.595 31.3194 311.512 29.375C310.456 27.4028 309.928 25.0833 309.928 22.4167C309.928 19.75 310.456 17.4583 311.512 15.5417C312.567 13.5972 314.067 12.1111 316.012 11.0833C317.956 10.0278 320.234 9.5 322.845 9.5C325.401 9.5 327.595 10 329.428 11C331.262 11.9722 332.678 13.3889 333.678 15.25C334.678 17.0833 335.178 19.2639 335.178 21.7917V23.9583H315.928C316.151 26.0694 316.873 27.6944 318.095 28.8333C319.345 29.9444 320.998 30.5 323.053 30.5C324.581 30.5 325.817 30.2222 326.762 29.6667C327.734 29.0833 328.414 28.2222 328.803 27.0833H335.053C334.47 29.7222 333.123 31.7917 331.012 33.2917C328.928 34.7639 326.289 35.5 323.095 35.5ZM316.053 19.75H329.22C328.97 18.0278 328.303 16.7222 327.22 15.8333C326.137 14.9167 324.678 14.4583 322.845 14.4583C321.039 14.4583 319.553 14.9167 318.387 15.8333C317.22 16.75 316.442 18.0556 316.053 19.75ZM341.207 35V16.2083H338.124V10H344.499V14H346.249C347.193 12.5833 348.401 11.4861 349.874 10.7083C351.346 9.93056 353.151 9.54167 355.29 9.54167C358.707 9.54167 361.346 10.4861 363.207 12.375C365.096 14.2639 366.04 16.7778 366.04 19.9167V35H359.832V21.0833C359.832 19.1111 359.304 17.6111 358.249 16.5833C357.221 15.5556 355.679 15.0417 353.624 15.0417C351.624 15.0417 350.082 15.5556 348.999 16.5833C347.943 17.6111 347.415 19.1111 347.415 21.0833V35H341.207ZM379.669 35.4583C376.753 35.4583 374.461 34.75 372.794 33.3333C371.155 31.9167 370.336 30.0417 370.336 27.7083C370.336 25.2639 371.169 23.375 372.836 22.0417C374.53 20.7083 376.961 20.0417 380.128 20.0417H387.753V19.0417C387.753 15.9861 385.975 14.4583 382.419 14.4583C379.419 14.4583 377.6 15.5417 376.961 17.7083H370.753C371.253 15.0417 372.503 13.0139 374.503 11.625C376.53 10.2083 379.169 9.5 382.419 9.5C386.086 9.5 388.878 10.3333 390.794 12C392.711 13.6389 393.669 16.0417 393.669 19.2083V28.7917H396.628V35H390.253V31H388.503C387.641 32.4167 386.475 33.5139 385.003 34.2917C383.558 35.0694 381.78 35.4583 379.669 35.4583ZM380.586 30.6667C381.947 30.6667 383.169 30.4167 384.253 29.9167C385.336 29.3889 386.183 28.6944 386.794 27.8333C387.433 26.9444 387.753 25.9583 387.753 24.875V24.2917H380.461C377.655 24.2917 376.253 25.3333 376.253 27.4167C376.253 28.4444 376.628 29.25 377.378 29.8333C378.155 30.3889 379.225 30.6667 380.586 30.6667Z" fill="black"/>
</svg>
