<svg width="461" height="156" viewBox="0 0 461 156" fill="none" xmlns="http://www.w3.org/2000/svg">
<path d="M81.2363 51.7031L111.098 0H162.473L162.404 0.112305L166.75 0.21875C167.036 0.216992 167.323 0.214844 167.611 0.214844C177.854 0.214844 186.999 1.29559 195.047 3.45605C237.611 12.328 275.022 38.7535 297.491 76.96V2.57422H297.652V2.36035H349.669L379.53 54.0635L409.392 2.36035H460.767L401.044 101.263V152.537H358.018V101.263L340.839 72.8145V152.536H340.679V152.751H293.157L239.754 66.9893C239.822 68.7258 239.857 70.496 239.857 72.2998V83.0264C239.964 103.622 235.523 119.855 226.532 131.727C214.759 147.316 195.118 155.111 167.611 155.111C165.231 155.111 162.909 155.05 160.646 154.933C160.269 155.187 160.069 155.322 160.064 155.325L160.317 154.916C136.605 153.618 119.396 145.817 108.691 131.512C106.42 128.549 104.44 125.302 102.749 121.773V150.176H59.7227V98.9014L0 0H51.375L81.2363 51.7031ZM167.611 49.1299C164.187 49.2729 161.19 49.5583 158.621 49.9873C156.052 50.2734 153.43 50.9886 150.754 52.1328C148.078 53.277 145.884 54.7794 144.172 56.6387C142.46 58.4979 141.014 61.072 139.837 64.3613C138.767 67.5079 138.286 71.2986 138.393 75.7324V79.3789C138.286 83.8125 138.767 87.6744 139.837 90.9639C141.014 94.2534 142.459 96.8282 144.172 98.6875C145.884 100.547 148.078 102.049 150.754 103.193C153.43 104.338 156.052 105.124 158.621 105.553C161.19 105.839 164.186 106.053 167.611 106.196C171.036 106.053 174.034 105.839 176.603 105.553C179.278 105.124 181.954 104.338 184.63 103.193C187.306 102.049 189.499 100.547 191.212 98.6875C192.924 96.8282 194.315 94.2534 195.386 90.9639C196.456 87.6744 196.938 83.8126 196.831 79.3789V75.7324C196.938 71.2986 196.456 67.5079 195.386 64.3613C194.315 61.0721 192.924 58.4979 191.212 56.6387C189.499 54.7793 187.252 53.277 184.469 52.1328C181.793 50.9887 179.171 50.2734 176.603 49.9873C174.034 49.5582 171.036 49.2729 167.611 49.1299Z" fill="#121212"/>
</svg>
