<?xml version="1.0" encoding="UTF-8"?>
<svg xmlns="http://www.w3.org/2000/svg" version="1.1" viewBox="0 0 238.2 108.3">
  <!-- Generator: Adobe Illustrator 28.7.1, SVG Export Plug-In . SVG Version: 1.2.0 Build 142)  -->
  <g>
    <g id="Layer_1">
      <path d="M4.9,40.8V10.7H0V.8h10.1v7.7h2.8c1.1-2.7,2.8-4.7,5.1-6.1,2.3-1.4,5-2.1,7.9-2.1h3.3v8.5h-3.8c-3.6,0-6.4,1-8.1,3.1-1.8,2.1-2.7,4.9-2.7,8.3v20.4H4.9v.2ZM69,30.9h0v-15.3c0-5.1-1.5-8.9-4.6-11.6-3.1-2.7-7.5-4-13.4-4s-9.4,1.1-12.6,3.4c-3.2,2.2-5.2,5.5-6.1,9.8h9.9c1-3.5,3.9-5.2,8.7-5.2s8.5,2.4,8.5,7.3v1.6h-12.2c-5.1,0-8.9,1.1-11.6,3.2-2.7,2.1-4,5.3-4,9.1s1.3,6.7,4,9c2.6,2.3,6.3,3.4,11,3.4s6.2-.6,8.6-1.9c2.3-1.2,4.2-3,5.6-5.3h2.8v6.4h10.2v-9.9h-4.7ZM59.4,24.5h0c0,1.8-.5,3.4-1.5,4.8s-2.4,2.5-4.1,3.3-3.7,1.2-5.9,1.2-3.9-.5-5.1-1.4c-1.2-.9-1.8-2.2-1.8-3.8,0-3.3,2.2-5,6.7-5h11.7v.9ZM78.9,56.8v-7.9h9.1l3.4-8.3L73.9.8h10.5l12,28.3h.3L108.3.8h10.1l-17.1,40-3.5,8.3c-1.1,2.4-2.2,4.3-3.5,5.7s-3.3,2-6,2h-9.4ZM159.2,9.8h0c-1.7-3.2-4.2-5.6-7.3-7.3-3.1-1.7-6.9-2.5-11.2-2.5s-8,.8-11.2,2.5-5.7,4.1-7.4,7.2c-1.7,3.1-2.6,6.8-2.6,11.1s.9,7.9,2.6,11c1.8,3.1,4.2,5.5,7.4,7.2s6.9,2.6,11.2,2.6,8-.8,11.2-2.5c3.2-1.7,5.6-4.1,7.3-7.2,1.7-3.1,2.6-6.8,2.6-11s-.9-8-2.6-11.1ZM149,29.6h0c-2,2.2-4.7,3.3-8.3,3.3s-6.4-1.1-8.4-3.2c-2-2.2-3-5.2-3-9s1-6.7,3-8.9c2-2.1,4.8-3.2,8.4-3.2s6.3,1.1,8.3,3.2c1.9,2.1,2.9,5.1,2.9,8.9s-1,6.7-2.9,8.9ZM23.6,108.3c-5.8,0-10.3-1.2-13.7-3.6s-5.1-5.8-5.4-10.2h9.7c.3,2.1,1.3,3.6,2.9,4.6,1.6,1,3.9,1.5,6.9,1.5,5.1,0,7.7-1.5,7.7-4.4s-.4-2.2-1.2-2.9-2.1-1.2-3.9-1.5l-8.9-1.7c-7.8-1.5-11.7-5.2-11.7-11.1s1.5-6.8,4.5-9,7.1-3.4,12.3-3.4,9.5,1.1,12.6,3.4,4.8,5.5,5.2,9.7h-9.6c-.5-2-1.4-3.5-2.8-4.4s-3.3-1.4-5.8-1.4-4,.4-5.2,1.1-1.8,1.8-1.8,3.1.4,1.8,1.1,2.5c.8.6,1.9,1.1,3.6,1.4l9,1.7c4.1.8,7.1,2.1,9,4s2.9,4.4,2.9,7.5-1.5,7.2-4.5,9.5-7.3,3.4-12.9,3.4h0v.2ZM59.1,107.5c-2.6,0-4.6-.7-6.1-2-1.4-1.3-2.2-3.4-2.2-6.1v-24.2h-7.1v-7.7h7.1v-12h9.7v12h9.7v7.7h-9.5v24.5h10.5v7.8h-12.1ZM93.9,108.2c-5.5,0-9.7-1.5-12.6-4.4s-4.4-6.8-4.4-11.8v-24.5h9.9v22.5c0,3.1.8,5.5,2.4,7,1.6,1.6,4,2.4,7.1,2.4s5.9-.8,7.7-2.5c1.8-1.7,2.7-4.1,2.7-7.1v-22.3h9.9v30.1h5v9.9h-10.2v-6.4h-2.8c-1.6,2.3-3.5,4.1-5.8,5.3s-5.3,1.8-8.8,1.8h0ZM167.1,97.6h0v-46.2h-9.9v21.8h-.3c-1.2-2.1-2.8-3.8-5-4.9-2.2-1.1-4.8-1.7-7.8-1.7s-7.1.9-9.8,2.6c-2.7,1.7-4.8,4.1-6.3,7.2-1.5,3.1-2.2,6.8-2.2,11s.7,7.8,2.2,11c1.5,3.1,3.7,5.6,6.5,7.3,2.8,1.7,6.3,2.6,10.4,2.6s6.1-.6,8.5-1.9c2.4-1.2,4.2-3,5.7-5.3h2.8v6.4h10.1v-9.9h-4.9ZM157.2,89.7c0,3.1-.9,5.5-2.8,7.3-1.9,1.8-4.4,2.7-7.6,2.7s-6.3-1.1-8.1-3.2c-1.9-2.2-2.8-5.1-2.8-9s.9-6.8,2.8-9c1.9-2.1,4.6-3.2,8.1-3.2s5.7.9,7.6,2.7c1.9,1.8,2.8,4.2,2.8,7.3,0,0,0,4.4,0,4.4ZM183.8,63.1c-1.6,0-2.9-.5-4-1.6s-1.6-2.4-1.6-4,.5-2.9,1.6-4,2.4-1.6,4-1.6,2.9.5,4,1.6,1.6,2.4,1.6,4-.5,2.9-1.6,4-2.4,1.6-4,1.6ZM178.9,107.5v-40h9.9v40h-9.9ZM235.6,76.5h0c-1.7-3.2-4.2-5.6-7.3-7.3-3.1-1.7-7-2.5-11.2-2.5s-8,.8-11.2,2.5c-3.2,1.7-5.7,4.1-7.4,7.2-1.7,3.1-2.6,6.8-2.6,11.1s.9,7.9,2.6,11c1.8,3.1,4.2,5.5,7.4,7.2,3.2,1.7,6.9,2.6,11.2,2.6s8-.8,11.2-2.5c3.2-1.7,5.6-4.1,7.3-7.2,1.7-3.1,2.6-6.8,2.6-11s-.9-8-2.6-11.1ZM225.3,96.3h0c-2,2.2-4.7,3.3-8.3,3.3s-6.4-1.1-8.4-3.2c-2-2.2-3-5.2-3-9s1-6.7,3-8.9c2-2.1,4.8-3.2,8.4-3.2s6.3,1.1,8.3,3.2c2,2.1,2.9,5.1,2.9,8.9s-1,6.7-2.9,8.9Z"/>
    </g>
  </g>
</svg>