<svg width="797" height="322" viewBox="0 0 797 322" fill="none" xmlns="http://www.w3.org/2000/svg">
<path d="M45.8344 124.6V79.6551L0.889375 4.4501H24.326L56.2177 58.8884H56.811L88.851 4.4501H111.249L66.3044 79.3584V124.6H45.8344ZM150.85 126.38C141.455 126.38 133.248 124.501 126.226 120.743C119.304 116.887 113.915 111.497 110.058 104.575C106.201 97.6529 104.273 89.4945 104.273 80.1001C104.273 70.7057 106.152 62.5473 109.91 55.6251C113.766 48.7029 119.205 43.3629 126.226 39.6051C133.248 35.7484 141.505 33.8201 150.998 33.8201C160.59 33.8201 168.848 35.699 175.77 39.4568C182.692 43.2145 188.032 48.5545 191.79 55.4768C195.548 62.399 197.426 70.6068 197.426 80.1001C197.426 89.4945 195.548 97.7023 191.79 104.723C188.032 111.646 182.643 116.986 175.621 120.743C168.699 124.501 160.442 126.38 150.85 126.38ZM150.85 108.877C159.255 108.877 165.733 106.306 170.281 101.163C174.929 96.0212 177.253 89.0001 177.253 80.1001C177.253 71.0023 174.929 63.9318 170.281 58.8884C165.733 53.8451 159.255 51.3234 150.85 51.3234C142.543 51.3234 136.066 53.8945 131.418 59.0368C126.77 64.0801 124.446 71.1012 124.446 80.1001C124.446 89.0001 126.77 96.0212 131.418 101.163C136.066 106.306 142.543 108.877 150.85 108.877ZM219.551 124.6V55.9218H209.316V35.6001H230.38V49.6918H236.61C239.774 44.6484 243.977 40.7918 249.218 38.1218C254.558 35.3529 260.986 33.9684 268.501 33.9684C280.368 33.9684 289.614 37.3307 296.24 44.0551C302.964 50.6807 306.326 59.5807 306.326 70.7551V124.6H286.153V74.3151C286.153 66.9973 284.175 61.4101 280.22 57.5534C276.363 53.6968 270.627 51.7684 263.013 51.7684C255.398 51.7684 249.613 53.6968 245.658 57.5534C241.702 61.4101 239.725 66.9973 239.725 74.3151V124.6H219.551ZM355.112 126.232C344.926 126.232 336.867 123.71 330.933 118.667C325.099 113.623 322.182 106.998 322.182 98.7901C322.182 90.1868 325.148 83.5118 331.082 78.7651C337.015 74.0184 345.519 71.6451 356.595 71.6451H384.778V67.9368C384.778 56.0701 378.054 50.1368 364.605 50.1368C353.233 50.1368 346.409 54.2407 344.135 62.4484H323.962C325.643 53.2518 329.994 46.1812 337.015 41.2368C344.135 36.2923 353.381 33.8201 364.753 33.8201C377.51 33.8201 387.251 36.7868 393.975 42.7201C400.699 48.5545 404.062 57.059 404.062 68.2334V104.278H413.703V124.6H392.788V110.508H386.558C383.493 115.453 379.339 119.31 374.098 122.078C368.857 124.847 362.528 126.232 355.112 126.232ZM358.078 110.508C363.122 110.508 367.671 109.52 371.725 107.542C375.779 105.564 378.944 102.943 381.218 99.6801C383.592 96.3179 384.778 92.6095 384.778 88.5551V85.7368H357.633C346.756 85.7368 341.317 89.7912 341.317 97.9001C341.317 101.856 342.8 104.971 345.767 107.245C348.733 109.421 352.837 110.508 358.078 110.508ZM455.322 124.6C449.884 124.6 445.631 123.216 442.566 120.447C439.599 117.678 438.116 113.475 438.116 107.838V51.3234H422.096V35.6001H438.264V8.90009H458.141V35.6001H480.242V51.3234H458.289V108.728H482.467V124.6H455.322ZM496.979 124.6V9.97782e-05H517.152V49.2468H517.745C520.613 44.2034 524.519 40.3962 529.464 37.8251C534.507 35.254 540.44 33.9684 547.264 33.9684C558.438 33.9684 567.289 37.3307 573.815 44.0551C580.441 50.6807 583.754 59.5807 583.754 70.7551V124.6H563.58V74.3151C563.58 66.9973 561.603 61.4101 557.647 57.5534C553.79 53.6968 548.055 51.7684 540.44 51.7684C532.826 51.7684 527.041 53.6968 523.085 57.5534C519.13 61.4101 517.152 66.9973 517.152 74.3151V124.6H496.979ZM632.541 126.232C622.356 126.232 614.296 123.71 608.363 118.667C602.529 113.623 599.611 106.998 599.611 98.7901C599.611 90.1868 602.578 83.5118 608.511 78.7651C614.445 74.0184 622.949 71.6451 634.025 71.6451H662.208V67.9368C662.208 56.0701 655.484 50.1368 642.035 50.1368C630.662 50.1368 623.839 54.2407 621.565 62.4484H601.391C603.072 53.2518 607.424 46.1812 614.445 41.2368C621.565 36.2923 630.811 33.8201 642.183 33.8201C654.94 33.8201 664.68 36.7868 671.405 42.7201C678.129 48.5545 681.491 57.059 681.491 68.2334V104.278H691.133V124.6H670.218V110.508H663.988C660.922 115.453 656.769 119.31 651.528 122.078C646.287 124.847 639.958 126.232 632.541 126.232ZM635.508 110.508C640.551 110.508 645.1 109.52 649.155 107.542C653.209 105.564 656.374 102.943 658.648 99.6801C661.021 96.3179 662.208 92.6095 662.208 88.5551V85.7368H635.063C624.185 85.7368 618.746 89.7912 618.746 97.9001C618.746 101.856 620.23 104.971 623.196 107.245C626.163 109.421 630.267 110.508 635.508 110.508ZM709.92 124.6V55.9218H699.685V35.6001H720.749V49.6918H726.979C730.143 44.6484 734.346 40.7918 739.587 38.1218C744.927 35.3529 751.355 33.9684 758.87 33.9684C770.737 33.9684 779.983 37.3307 786.609 44.0551C793.333 50.6807 796.695 59.5807 796.695 70.7551V124.6H776.522V74.3151C776.522 66.9973 774.544 61.4101 770.589 57.5534C766.732 53.6968 760.997 51.7684 753.382 51.7684C745.768 51.7684 739.983 53.6968 736.027 57.5534C732.072 61.4101 730.094 66.9973 730.094 74.3151V124.6H709.92ZM-0.00062502 284.6L51.1744 164.45H73.1277L124.006 284.6H103.091L88.9994 251.67H34.4127L20.321 284.6H-0.00062502ZM41.0877 234.167H83.066L62.4477 185.068H61.706L41.0877 234.167ZM176.284 321.98C163.528 321.98 153.144 319.36 145.134 314.118C137.124 308.877 132.378 301.609 130.894 292.313H152.254C154.825 301.115 162.687 305.515 175.839 305.515C184.443 305.515 191.019 303.488 195.568 299.433C200.116 295.478 202.391 289.792 202.391 282.375V269.025H201.649C199.177 274.068 195.469 277.925 190.524 280.595C185.58 283.265 179.696 284.6 172.873 284.6C164.467 284.6 157.149 282.771 150.919 279.112C144.788 275.354 139.992 270.113 136.531 263.388C133.169 256.565 131.488 248.506 131.488 239.21C131.488 225.267 135.245 214.241 142.761 206.132C150.375 197.924 160.808 193.82 174.059 193.82C181.377 193.82 187.607 195.205 192.749 197.973C197.99 200.643 202.144 204.55 205.209 209.692H211.439V195.6H232.354V215.922H222.119V282.82C222.119 295.28 218.114 304.922 210.104 311.745C202.193 318.568 190.92 321.98 176.284 321.98ZM177.768 267.097C185.184 267.097 191.068 265.02 195.419 260.867C199.77 256.615 201.946 250.928 201.946 243.808V234.463C201.946 227.442 199.721 221.855 195.271 217.702C190.92 213.45 185.085 211.323 177.768 211.323C169.56 211.323 163.132 213.796 158.484 218.74C153.935 223.586 151.661 230.409 151.661 239.21C151.661 248.11 153.935 254.983 158.484 259.828C163.132 264.674 169.56 267.097 177.768 267.097ZM290.485 286.38C281.09 286.38 272.882 284.501 265.861 280.743C258.939 276.887 253.599 271.448 249.841 264.427C246.084 257.406 244.205 249.198 244.205 239.803C244.205 230.409 246.034 222.3 249.693 215.477C253.451 208.555 258.741 203.215 265.565 199.457C272.388 195.699 280.447 193.82 289.743 193.82C298.643 193.82 306.307 195.6 312.735 199.16C319.162 202.621 324.107 207.615 327.568 214.142C331.128 220.57 332.908 228.233 332.908 237.133V244.55H263.488C264.279 252.659 266.999 258.938 271.646 263.388C276.294 267.74 282.524 269.915 290.336 269.915C296.072 269.915 300.769 268.827 304.428 266.652C308.087 264.476 310.609 261.213 311.993 256.862H332.463C330.287 266.157 325.491 273.426 318.075 278.667C310.757 283.809 301.56 286.38 290.485 286.38ZM264.081 230.458H313.625C312.834 223.932 310.361 218.938 306.208 215.477C302.055 211.917 296.566 210.137 289.743 210.137C282.92 210.137 277.283 211.917 272.833 215.477C268.383 218.938 265.466 223.932 264.081 230.458ZM354.963 284.6V215.922H344.728V195.6H365.792V209.692H372.022C375.186 204.648 379.389 200.792 384.63 198.122C389.97 195.353 396.398 193.968 403.913 193.968C415.78 193.968 425.026 197.331 431.652 204.055C438.376 210.681 441.738 219.581 441.738 230.755V284.6H421.565V234.315C421.565 226.997 419.587 221.41 415.632 217.553C411.775 213.697 406.039 211.768 398.425 211.768C390.811 211.768 385.026 213.697 381.07 217.553C377.114 221.41 375.137 226.997 375.137 234.315V284.6H354.963ZM490.524 286.232C480.338 286.232 472.279 283.71 466.345 278.667C460.511 273.623 457.594 266.998 457.594 258.79C457.594 250.187 460.56 243.512 466.494 238.765C472.427 234.018 480.932 231.645 492.007 231.645H520.19V227.937C520.19 216.07 513.466 210.137 500.017 210.137C488.645 210.137 481.822 214.241 479.547 222.448H459.374C461.055 213.252 465.406 206.181 472.427 201.237C479.547 196.292 488.793 193.82 500.165 193.82C512.922 193.82 522.663 196.787 529.387 202.72C536.112 208.555 539.474 217.059 539.474 228.233V264.278H549.115V284.6H528.2V270.508H521.97C518.905 275.453 514.752 279.31 509.51 282.078C504.269 284.847 497.94 286.232 490.524 286.232ZM493.49 270.508C498.534 270.508 503.083 269.52 507.137 267.542C511.192 265.564 514.356 262.943 516.63 259.68C519.004 256.318 520.19 252.61 520.19 248.555V245.737H493.045C482.168 245.737 476.729 249.791 476.729 257.9C476.729 261.856 478.212 264.971 481.179 267.245C484.145 269.421 488.249 270.508 493.49 270.508Z" fill="black"/>
</svg>
