<svg width="1573" height="182" viewBox="0 0 1573 182" fill="none" xmlns="http://www.w3.org/2000/svg">
<path d="M50.5 140V89.5L-4.47035e-08 5H26.3333L62.1667 66.1667H62.8333L98.8333 5H124L73.5 89.1667V140H50.5ZM168.495 142C157.939 142 148.717 139.889 140.828 135.667C133.05 131.333 126.995 125.278 122.661 117.5C118.328 109.722 116.161 100.556 116.161 90C116.161 79.4444 118.273 70.2778 122.495 62.5C126.828 54.7222 132.939 48.7222 140.828 44.5C148.717 40.1667 157.995 38 168.661 38C179.439 38 188.717 40.1111 196.495 44.3333C204.273 48.5556 210.273 54.5556 214.495 62.3333C218.717 70.1111 220.828 79.3333 220.828 90C220.828 100.556 218.717 109.778 214.495 117.667C210.273 125.444 204.217 131.444 196.328 135.667C188.55 139.889 179.273 142 168.495 142ZM168.495 122.333C177.939 122.333 185.217 119.444 190.328 113.667C195.55 107.889 198.161 100 198.161 90C198.161 79.7778 195.55 71.8333 190.328 66.1667C185.217 60.5 177.939 57.6667 168.495 57.6667C159.161 57.6667 151.884 60.5556 146.661 66.3333C141.439 72 138.828 79.8889 138.828 90C138.828 100 141.439 107.889 146.661 113.667C151.884 119.444 159.161 122.333 168.495 122.333ZM245.688 140V62.8333H234.188V40H257.854V55.8333H264.854C268.41 50.1667 273.132 45.8333 279.021 42.8333C285.021 39.7222 292.243 38.1667 300.688 38.1667C314.021 38.1667 324.41 41.9444 331.854 49.5C339.41 56.9444 343.187 66.9444 343.187 79.5V140H320.521V83.5C320.521 75.2778 318.299 69 313.854 64.6667C309.521 60.3333 303.076 58.1667 294.521 58.1667C285.965 58.1667 279.465 60.3333 275.021 64.6667C270.576 69 268.354 75.2778 268.354 83.5V140H245.688ZM398.003 141.833C386.558 141.833 377.503 139 370.836 133.333C364.28 127.667 361.003 120.222 361.003 111C361.003 101.333 364.336 93.8333 371.003 88.5C377.669 83.1667 387.225 80.5 399.669 80.5H431.336V76.3333C431.336 63 423.78 56.3333 408.669 56.3333C395.891 56.3333 388.225 60.9444 385.669 70.1667H363.003C364.891 59.8333 369.78 51.8889 377.669 46.3333C385.669 40.7778 396.058 38 408.836 38C423.169 38 434.114 41.3333 441.669 48C449.225 54.5556 453.003 64.1111 453.003 76.6667V117.167H463.836V140H440.336V124.167H433.336C429.891 129.722 425.225 134.056 419.336 137.167C413.447 140.278 406.336 141.833 398.003 141.833ZM401.336 124.167C407.003 124.167 412.114 123.056 416.669 120.833C421.225 118.611 424.78 115.667 427.336 112C430.003 108.222 431.336 104.056 431.336 99.5V96.3333H400.836C388.614 96.3333 382.503 100.889 382.503 110C382.503 114.444 384.169 117.944 387.503 120.5C390.836 122.944 395.447 124.167 401.336 124.167ZM510.599 140C504.488 140 499.71 138.444 496.266 135.333C492.932 132.222 491.266 127.5 491.266 121.167V57.6667H473.266V40H491.432V9.99999H513.766V40H538.599V57.6667H513.932V122.167H541.099V140H510.599ZM557.404 140V2.38419e-06H580.07V55.3333H580.737C583.959 49.6667 588.348 45.3889 593.904 42.5C599.57 39.6111 606.237 38.1667 613.904 38.1667C626.459 38.1667 636.404 41.9444 643.737 49.5C651.181 56.9444 654.904 66.9444 654.904 79.5V140H632.237V83.5C632.237 75.2778 630.015 69 625.57 64.6667C621.237 60.3333 614.793 58.1667 606.237 58.1667C597.681 58.1667 591.181 60.3333 586.737 64.6667C582.293 69 580.07 75.2778 580.07 83.5V140H557.404ZM709.721 141.833C698.277 141.833 689.221 139 682.555 133.333C675.999 127.667 672.721 120.222 672.721 111C672.721 101.333 676.055 93.8333 682.721 88.5C689.388 83.1667 698.944 80.5 711.388 80.5H743.055V76.3333C743.055 63 735.499 56.3333 720.388 56.3333C707.61 56.3333 699.944 60.9444 697.388 70.1667H674.721C676.61 59.8333 681.499 51.8889 689.388 46.3333C697.388 40.7778 707.777 38 720.555 38C734.888 38 745.832 41.3333 753.388 48C760.944 54.5556 764.721 64.1111 764.721 76.6667V117.167H775.555V140H752.055V124.167H745.055C741.61 129.722 736.944 134.056 731.055 137.167C725.166 140.278 718.055 141.833 709.721 141.833ZM713.055 124.167C718.721 124.167 723.832 123.056 728.388 120.833C732.944 118.611 736.499 115.667 739.055 112C741.721 108.222 743.055 104.056 743.055 99.5V96.3333H712.555C700.332 96.3333 694.221 100.889 694.221 110C694.221 114.444 695.888 117.944 699.221 120.5C702.555 122.944 707.166 124.167 713.055 124.167ZM796.664 140V62.8333H785.164V40H808.831V55.8333H815.831C819.386 50.1667 824.109 45.8333 829.997 42.8333C835.997 39.7222 843.22 38.1667 851.664 38.1667C864.997 38.1667 875.386 41.9444 882.831 49.5C890.386 56.9444 894.164 66.9444 894.164 79.5V140H871.497V83.5C871.497 75.2778 869.275 69 864.831 64.6667C860.497 60.3333 854.053 58.1667 845.497 58.1667C836.942 58.1667 830.442 60.3333 825.997 64.6667C821.553 69 819.331 75.2778 819.331 83.5V140H796.664ZM955.25 140L1012.75 5H1037.42L1094.58 140H1071.08L1055.25 103H993.917L978.083 140H955.25ZM1001.42 83.3333H1048.58L1025.42 28.1667H1024.58L1001.42 83.3333ZM1153.32 182C1138.99 182 1127.32 179.056 1118.32 173.167C1109.32 167.278 1103.99 159.111 1102.32 148.667H1126.32C1129.21 158.556 1138.05 163.5 1152.82 163.5C1162.49 163.5 1169.88 161.222 1174.99 156.667C1180.1 152.222 1182.66 145.833 1182.66 137.5V122.5H1181.82C1179.05 128.167 1174.88 132.5 1169.32 135.5C1163.77 138.5 1157.16 140 1149.49 140C1140.05 140 1131.82 137.944 1124.82 133.833C1117.93 129.611 1112.55 123.722 1108.66 116.167C1104.88 108.5 1102.99 99.4444 1102.99 89C1102.99 73.3333 1107.21 60.9444 1115.66 51.8333C1124.21 42.6111 1135.93 38 1150.82 38C1159.05 38 1166.05 39.5556 1171.82 42.6667C1177.71 45.6667 1182.38 50.0556 1185.82 55.8333H1192.82V40H1216.32V62.8333H1204.82V138C1204.82 152 1200.32 162.833 1191.32 170.5C1182.43 178.167 1169.77 182 1153.32 182ZM1154.99 120.333C1163.32 120.333 1169.93 118 1174.82 113.333C1179.71 108.556 1182.16 102.167 1182.16 94.1667V83.6667C1182.16 75.7778 1179.66 69.5 1174.66 64.8333C1169.77 60.0556 1163.21 57.6667 1154.99 57.6667C1145.77 57.6667 1138.55 60.4444 1133.32 66C1128.21 71.4444 1125.66 79.1111 1125.66 89C1125.66 99 1128.21 106.722 1133.32 112.167C1138.55 117.611 1145.77 120.333 1154.99 120.333ZM1281.64 142C1271.08 142 1261.86 139.889 1253.97 135.667C1246.19 131.333 1240.19 125.222 1235.97 117.333C1231.75 109.444 1229.64 100.222 1229.64 89.6667C1229.64 79.1111 1231.69 70 1235.8 62.3333C1240.03 54.5556 1245.97 48.5556 1253.64 44.3333C1261.3 40.1111 1270.36 38 1280.8 38C1290.8 38 1299.42 40 1306.64 44C1313.86 47.8889 1319.42 53.5 1323.3 60.8333C1327.3 68.0556 1329.3 76.6667 1329.3 86.6667V95H1251.3C1252.19 104.111 1255.25 111.167 1260.47 116.167C1265.69 121.056 1272.69 123.5 1281.47 123.5C1287.92 123.5 1293.19 122.278 1297.3 119.833C1301.42 117.389 1304.25 113.722 1305.8 108.833H1328.8C1326.36 119.278 1320.97 127.444 1312.64 133.333C1304.42 139.111 1294.08 142 1281.64 142ZM1251.97 79.1667H1307.64C1306.75 71.8333 1303.97 66.2222 1299.3 62.3333C1294.64 58.3333 1288.47 56.3333 1280.8 56.3333C1273.14 56.3333 1266.8 58.3333 1261.8 62.3333C1256.8 66.2222 1253.53 71.8333 1251.97 79.1667ZM1354.09 140V62.8333H1342.59V40H1366.25V55.8333H1373.25C1376.81 50.1667 1381.53 45.8333 1387.42 42.8333C1393.42 39.7222 1400.64 38.1667 1409.09 38.1667C1422.42 38.1667 1432.81 41.9444 1440.25 49.5C1447.81 56.9444 1451.59 66.9444 1451.59 79.5V140H1428.92V83.5C1428.92 75.2778 1426.7 69 1422.25 64.6667C1417.92 60.3333 1411.47 58.1667 1402.92 58.1667C1394.36 58.1667 1387.86 60.3333 1383.42 64.6667C1378.97 69 1376.75 75.2778 1376.75 83.5V140H1354.09ZM1506.4 141.833C1494.96 141.833 1485.9 139 1479.23 133.333C1472.68 127.667 1469.4 120.222 1469.4 111C1469.4 101.333 1472.73 93.8333 1479.4 88.5C1486.07 83.1667 1495.62 80.5 1508.07 80.5H1539.73V76.3333C1539.73 63 1532.18 56.3333 1517.07 56.3333C1504.29 56.3333 1496.62 60.9444 1494.07 70.1667H1471.4C1473.29 59.8333 1478.18 51.8889 1486.07 46.3333C1494.07 40.7778 1504.46 38 1517.23 38C1531.57 38 1542.51 41.3333 1550.07 48C1557.62 54.5556 1561.4 64.1111 1561.4 76.6667V117.167H1572.23V140H1548.73V124.167H1541.73C1538.29 129.722 1533.62 134.056 1527.73 137.167C1521.85 140.278 1514.73 141.833 1506.4 141.833ZM1509.73 124.167C1515.4 124.167 1520.51 123.056 1525.07 120.833C1529.62 118.611 1533.18 115.667 1535.73 112C1538.4 108.222 1539.73 104.056 1539.73 99.5V96.3333H1509.23C1497.01 96.3333 1490.9 100.889 1490.9 110C1490.9 114.444 1492.57 117.944 1495.9 120.5C1499.23 122.944 1503.85 124.167 1509.73 124.167Z" fill="black"/>
</svg>
